<svg fill="#e30000" version="1.1" id="Layer_3" xmlns="http://www.w3.org/2000/svg" xmlns:xlink="http://www.w3.org/1999/xlink" x="0px" y="0px" viewBox="0 0 64 64" style="enable-background:new 0 0 64 64;" xml:space="preserve">
<g>
<path d="M32,3V1C14.907,1,1,14.907,1,32h2C3,16.009,16.009,3,32,3z" id="id_127"></path>
<path d="M6.428,45.689l-1.763,0.944c0.319,0.596,0.658,1.181,1.015,1.752l1.696-1.059C7.043,46.793,6.727,46.247,6.428,45.689z" id="id_128"></path>
<path d="M4.861,42.245L2.99,42.951c0.236,0.625,0.497,1.254,0.777,1.869l1.82-0.828C5.327,43.419,5.084,42.836,4.861,42.245z" id="id_129"></path>
<path d="M3.142,34.885l-1.99,0.197c0.067,0.677,0.155,1.346,0.265,2.008l1.974-0.326C3.287,36.145,3.205,35.518,3.142,34.885z" id="id_130"></path>
<path d="M3.759,38.623l-1.947,0.455c0.153,0.654,0.33,1.312,0.526,1.957l1.913-0.582C4.068,39.851,3.904,39.241,3.759,38.623z" id="id_131"></path>
<path d="M8.431,48.901l-1.624,1.167c0.395,0.549,0.806,1.084,1.234,1.605l1.545-1.27C9.186,49.916,8.8,49.415,8.431,48.901z" id="id_132"></path>
<path d="M19.197,60.241c0.614,0.278,1.244,0.54,1.874,0.777l0.705-1.871c-0.594-0.224-1.178-0.466-1.751-0.727L19.197,60.241z" id="id_133"></path>
<path d="M22.99,61.67c0.639,0.194,1.298,0.371,1.958,0.524l0.454-1.948c-0.618-0.144-1.228-0.307-1.831-0.49L22.99,61.67z" id="id_134"></path>
<path d="M26.936,62.588c0.663,0.109,1.333,0.197,2.009,0.263l0.194-1.99c-0.632-0.062-1.259-0.144-1.879-0.246L26.936,62.588z" id="id_135"></path>
<path d="M15.625,58.327c0.572,0.357,1.158,0.695,1.755,1.015l0.944-1.763c-0.558-0.299-1.105-0.616-1.641-0.95L15.625,58.327z" id="id_136"></path>
<path d="M12.334,55.964c0.521,0.428,1.057,0.84,1.606,1.235l1.167-1.625c-0.514-0.369-1.016-0.754-1.503-1.155L12.334,55.964z" id="id_137"></path>
<path d="M9.378,53.196c0.462,0.493,0.939,0.971,1.433,1.433l1.367-1.46c-0.461-0.432-0.908-0.879-1.34-1.34L9.378,53.196z" id="id_138"></path>
<path d="M61,32c0,15.99-13.009,29-29,29v2c17.093,0,31-13.906,31-31H61z" id="id_139"></path>
<path d="M60.241,25.377l1.947-0.455c-0.153-0.654-0.33-1.312-0.526-1.957l-1.913,0.582C59.932,24.149,60.096,24.759,60.241,25.377z
		" id="id_140"></path>
<path d="M60.858,29.115l1.99-0.197c-0.067-0.677-0.155-1.346-0.265-2.008l-1.974,0.326C60.713,27.855,60.795,28.482,60.858,29.115z
		" id="id_141"></path>
<path d="M57.572,18.311l1.763-0.944c-0.319-0.596-0.658-1.181-1.015-1.752l-1.696,1.059C56.957,17.207,57.273,17.753,57.572,18.311
		z" id="id_142"></path>
<path d="M59.139,21.755l1.871-0.706c-0.236-0.625-0.497-1.254-0.777-1.869l-1.82,0.828C58.673,20.581,58.916,21.164,59.139,21.755z
		" id="id_143"></path>
<path d="M51.666,8.036c-0.521-0.428-1.057-0.84-1.606-1.235l-1.167,1.625c0.514,0.369,1.016,0.754,1.503,1.155L51.666,8.036z" id="id_144"></path>
<path d="M41.01,2.33c-0.639-0.194-1.298-0.371-1.958-0.524l-0.454,1.948c0.618,0.144,1.228,0.307,1.831,0.49L41.01,2.33z" id="id_145"></path>
<path d="M48.375,5.673c-0.572-0.357-1.158-0.695-1.755-1.015L45.676,6.42c0.558,0.299,1.105,0.616,1.641,0.95L48.375,5.673z" id="id_146"></path>
<path d="M44.803,3.759c-0.614-0.278-1.244-0.54-1.874-0.777l-0.705,1.871c0.594,0.224,1.178,0.466,1.751,0.727L44.803,3.759z" id="id_147"></path>
<path d="M37.064,1.412c-0.663-0.109-1.333-0.197-2.009-0.263l-0.194,1.99c0.632,0.062,1.259,0.144,1.879,0.246L37.064,1.412z" id="id_148"></path>
<path d="M54.622,10.804c-0.462-0.493-0.939-0.971-1.433-1.433l-1.367,1.46c0.461,0.432,0.908,0.879,1.34,1.34L54.622,10.804z" id="id_149"></path>
<path d="M55.569,15.099l1.624-1.167c-0.395-0.549-0.806-1.084-1.234-1.605l-1.545,1.27C54.814,14.084,55.2,14.585,55.569,15.099z" id="id_150"></path>
<circle cx="32" cy="30.001" r="8" id="id_151"></circle>
<path d="M32,9C19.318,9,9,19.318,9,32c0,12.683,10.318,23,23,23s23-10.317,23-23C55,19.318,44.682,9,32,9z M35.944,43.428L32,48
		l-3.944-4.572C22.246,41.724,18,36.362,18,30.001c0-7.732,6.268-14,14-14s14,6.268,14,14C46,36.362,41.754,41.724,35.944,43.428z" id="id_152"></path>
</g>
</svg>